<?xml version="1.0" standalone="no"?>
<!DOCTYPE svg PUBLIC "-//W3C//DTD SVG 20010904//EN"
 "http://www.w3.org/TR/2001/REC-SVG-20010904/DTD/svg10.dtd">
<svg version="1.0" xmlns="http://www.w3.org/2000/svg"
 width="512.000000pt" height="512.000000pt" viewBox="0 0 512.000000 512.000000"
 preserveAspectRatio="xMidYMid meet">
<metadata>
Created by potrace 1.11, written by Peter Selinger 2001-2013
</metadata>
<g transform="translate(0.000000,512.000000) scale(0.100000,-0.100000)"
fill="#000000" stroke="none">
<path d="M3420 4359 c-89 -27 -150 -102 -165 -204 -8 -56 -10 -72 -19 -165 -4
-36 -9 -83 -12 -105 -2 -22 -7 -62 -10 -90 -3 -27 -7 -68 -9 -90 -3 -22 -7
-62 -9 -90 -2 -27 -7 -68 -10 -90 -7 -53 -15 -127 -21 -195 -6 -59 -13 -124
-20 -180 -3 -19 -8 -62 -11 -95 -3 -33 -8 -73 -10 -90 -2 -16 -6 -59 -9 -95
-3 -36 -8 -76 -10 -90 -4 -29 -13 -103 -20 -175 -12 -120 -16 -155 -26 -230
-5 -44 -12 -92 -15 -107 -2 -16 -6 -43 -9 -60 -11 -66 -28 -147 -45 -213 -17
-66 -24 -117 -23 -167 1 -94 83 -210 165 -234 65 -20 188 -1 358 56 56 19 244
68 290 76 14 3 32 7 40 9 8 3 35 7 59 10 24 3 47 8 51 10 4 2 34 7 67 10 33 3
70 8 83 10 85 16 387 23 535 11 50 -4 108 -8 129 -10 142 -10 296 81 330 194
25 85 6 175 -48 224 -33 29 -98 56 -138 56 -20 0 -67 -6 -105 -14 -61 -13 -97
-18 -198 -31 -64 -8 -212 -20 -390 -30 -88 -5 -175 -13 -225 -20 -14 -2 -47
-7 -75 -11 -27 -3 -59 -8 -70 -10 -53 -10 -245 -34 -285 -37 -42 -2 -45 -1
-50 28 -3 17 -2 59 2 95 5 36 10 88 13 115 3 28 8 70 11 95 7 65 12 108 19
165 3 28 7 66 10 85 2 19 7 60 10 90 4 30 15 125 25 210 11 85 22 178 25 205
2 28 8 68 11 90 10 67 11 76 28 220 7 57 26 192 30 212 3 11 7 44 11 73 4 29
9 62 11 74 18 87 36 202 41 262 4 59 2 78 -15 115 -25 53 -36 66 -85 103 -32
25 -49 30 -110 32 -40 2 -88 -1 -107 -7z"/>
<path d="M1488 3866 c-1 -2 -68 -7 -148 -10 -80 -4 -161 -9 -180 -11 -19 -2
-71 -6 -115 -9 -44 -3 -120 -8 -170 -12 -96 -6 -203 -7 -405 -4 -147 3 -175
-6 -249 -75 -94 -88 -108 -197 -34 -266 22 -20 63 -44 94 -54 81 -27 82 -28
75 -115 -3 -41 -12 -112 -20 -157 -8 -45 -17 -99 -21 -120 -3 -21 -7 -50 -10
-63 -3 -14 -7 -46 -10 -71 -3 -25 -8 -56 -10 -70 -3 -13 -12 -78 -20 -144 -9
-66 -18 -131 -20 -145 -2 -14 -7 -52 -10 -85 -3 -33 -8 -71 -10 -85 -2 -14 -7
-54 -10 -90 -3 -36 -8 -81 -10 -100 -3 -19 -8 -71 -11 -115 -3 -44 -7 -96 -9
-115 -6 -69 -18 -266 -19 -307 -1 -24 -5 -43 -9 -43 -5 0 -5 -4 -2 -10 11 -18
-14 -121 -50 -204 -48 -112 -51 -142 -21 -198 66 -124 143 -174 251 -165 76 7
112 21 242 98 112 66 229 108 428 154 498 114 944 351 1260 670 181 182 293
362 350 559 36 127 36 127 40 281 5 150 -10 270 -46 374 -11 31 -21 61 -22 66
-5 20 -61 130 -81 160 -83 120 -171 206 -289 285 -75 50 -214 118 -252 124 -5
1 -14 4 -20 7 -5 4 -28 10 -50 14 -22 5 -44 9 -50 11 -54 14 -138 26 -225 30
-58 3 -110 7 -117 9 -6 2 -13 2 -15 1z m152 -390 c316 -62 529 -262 567 -531
17 -118 5 -273 -28 -382 -48 -157 -133 -289 -278 -433 -215 -213 -450 -339
-836 -451 -55 -16 -120 -35 -145 -43 -57 -19 -203 -53 -256 -61 -38 -5 -42 -4
-46 19 -6 32 -2 297 6 401 12 143 22 255 31 325 2 19 7 60 10 90 8 73 44 349
49 377 3 12 7 48 11 80 3 32 8 67 10 78 3 11 7 36 9 55 3 19 15 96 26 170 12
74 23 149 25 165 11 90 21 110 52 110 16 1 60 4 98 9 220 26 318 32 480 30 99
-1 196 -4 215 -8z"/>
</g>
</svg>
